<svg height="512pt" viewBox="0 -28 512 512" width="512pt" xmlns="http://www.w3.org/2000/svg"><path d="m504.226562 316.328125c.019532 10.664063-8.617187 19.398437-19.285156 19.398437h-209.140625c-.011719-.074218-.03125-.144531-.039062-.214843-10.648438-50.660157 22.367187-96.1875 68.652343-105.5 4.648438-.941407 9.445313-1.503907 14.335938-1.675781 1.050781-.039063 2.097656-.058594 3.15625-.058594h54.167969c48.753906 0 88.101562 39.519531 88.152343 88.050781zm0 0" fill="#6990d7"/><path d="m364.347656 247.671875c0 15.957031-10.332031 29.492187-24.671875 34.300781-5.328125 1.785156-9.597656 5.808594-11.414062 11.125-5.503907 16.121094-17.179688 30.722656-30.683594 42.628906h-21.777344c-.011719-.074218-.03125-.144531-.039062-.214843-10.648438-50.660157 22.367187-96.1875 68.652343-105.5 4.648438-.941407 9.445313-1.503907 14.335938-1.675781 3.539062 5.59375 5.597656 12.230468 5.597656 19.335937zm0 0" fill="#4172cc"/><path d="m238.09375 316.4375c0 10.65625-8.636719 19.292969-19.292969 19.292969h-191.894531c-10.660156 0-19.292969-8.632813-19.292969-19.292969 0-48.578125 39.355469-88.164062 88.152344-88.164062h54.171875c48.792969 0 88.15625 39.585937 88.15625 88.164062zm0 0" fill="#4172cc"/><path d="m236.039062 335.726562h-191.195312c-10.667969 0-19.304688-8.730468-19.289062-19.402343.058593-48.527344 39.390624-88.050781 88.152343-88.050781h36.230469c55.121094 0 98.210938 50.519531 86.101562 107.453124zm0 0" fill="#6990d7"/><g fill="#e3a76f"><path d="m144.300781 228.179688-17.449219 29.617187c-1.796874 3.046875-6.203124 3.046875-7.996093 0l-17.453125-29.617187v-52.0625h42.898437zm0 0"/><path d="m86.160156 142.136719c0 13.84375-11.222656 25.066406-25.066406 25.066406s-25.066406-11.222656-25.066406-25.066406 11.222656-25.066407 25.066406-25.066407 25.066406 11.222657 25.066406 25.066407zm0 0"/><path d="m211.675781 142.140625c0 13.84375-11.222656 25.070313-25.066406 25.070313s-25.066406-11.226563-25.066406-25.070313 11.222656-25.066406 25.066406-25.066406 25.066406 11.222656 25.066406 25.066406zm0 0"/><path d="m189.019531 43.4375v116.5625c0 30.308594-35.472656 55.785156-56.503906 63.078125-3.945313 1.367187-7.378906 2.089844-9.984375 2.089844-8.234375 0-24.859375-7.292969-39.417969-19.089844-14.566406-11.792969-27.066406-28.085937-27.066406-46.078125v-116.5625c0-11.882812 9.632813-21.511719 21.511719-21.511719h89.949218c11.886719 0 21.511719 9.628907 21.511719 21.511719zm0 0"/></g><path d="m189.019531 43.4375v116.5625c0 26.226562-26.558593 48.835938-47.34375 59.175781-5.753906 2.863281-12.515625 2.886719-18.273437.027344-6.539063-3.25-13.648438-7.714844-20.324219-13.125-14.566406-11.789063-27.070313-28.085937-27.070313-46.078125v-116.5625c0-11.882812 9.632813-21.511719 21.511719-21.511719h69.988281c11.882813 0 21.511719 9.632813 21.511719 21.511719zm0 0" fill="#f2bb88"/><path d="m410.441406 228.179688-17.453125 29.617187c-1.792969 3.046875-6.199219 3.046875-7.996093 0l-17.449219-29.617187v-52.0625h42.898437zm0 0" fill="#e3a76f"/><path d="m352.300781 142.136719c0 13.84375-11.222656 25.066406-25.066406 25.066406s-25.066406-11.222656-25.066406-25.066406 11.222656-25.066407 25.066406-25.066407 25.066406 11.222657 25.066406 25.066407zm0 0" fill="#e3a76f"/><path d="m477.8125 142.140625c0 13.84375-11.222656 25.070313-25.066406 25.070313s-25.066406-11.226563-25.066406-25.070313 11.222656-25.066406 25.066406-25.066406 25.066406 11.222656 25.066406 25.066406zm0 0" fill="#e3a76f"/><path d="m455.160156 21.925781v138.074219c0 30.308594-35.472656 55.785156-56.507812 63.078125-3.945313 1.367187-7.378906 2.089844-9.980469 2.089844-8.238281 0-24.859375-7.292969-39.417969-19.089844-14.566406-11.792969-27.070312-28.085937-27.070312-46.078125v-116.5625c0-11.878906 9.632812-21.511719 21.511718-21.511719zm0 0" fill="#e3a76f"/><path d="m455.160156 21.925781v138.074219c0 26.164062-26.4375 48.730469-47.199218 59.105469-5.792969 2.894531-12.621094 2.976562-18.421876.097656-6.535156-3.25-13.648437-7.714844-20.324218-13.125-14.566406-11.792969-27.066406-28.085937-27.066406-46.078125v-116.5625c0-11.878906 9.628906-21.511719 21.511718-21.511719zm0 0" fill="#f2bb88"/><path d="m197.480469 94.417969h-20.441407c-10.953124 0-19.828124-8.875-19.828124-19.824219v-36.28125c0-10.949219 8.875-19.824219 19.828124-19.824219h4.292969c10.953125 0 19.828125 8.875 19.828125 19.824219v52.429688c0 2.03125-1.644531 3.675781-3.679687 3.675781zm0 0" fill="#7c3f2c"/><path d="m179.59375 11.007812v6.324219s-1.433594 48.761719-46.375 69.851563c-1.03125.484375-2.410156-.097656-2.25-.945313l2.84375-15.265625c.210938-1.109375-1.988281-1.570312-2.722656-.574218-8.316406 11.230468-29.164063 36.980468-53.097656 48.121093-1.101563.511719-2.542969-.171875-2.230469-1.058593l5.839843-16.382813c.371094-1.050781-1.605468-1.695313-2.5625-.847656-7.46875 6.652343-23.945312 19.296875-43.957031 22.300781-.90625.128906-1.761719-.34375-1.761719-.976562v-88.324219c0-14.175781 17.167969-25.667969 38.339844-25.667969h102.78125c.535156 0 1.058594.050781 1.542969.148438 2.085937.445312 3.609375 1.753906 3.609375 3.296874zm0 0" fill="#954c35"/><path d="m175.984375 7.710938c-4.859375 16.011718-16.222656 38.121093-42.765625 50.582031-1.03125.480469-2.410156-.113281-2.25-.960938l2.84375-15.25c.210938-1.109375-1.988281-1.585937-2.722656-.585937-8.316406 11.242187-29.164063 36.988281-53.097656 48.128906-1.101563.503906-2.542969-.183594-2.230469-1.070312l5.839843-16.382813c.371094-1.035156-1.605468-1.691406-2.5625-.835937-7.46875 6.644531-23.945312 19.285156-43.957031 22.292968-.90625.140625-1.761719-.335937-1.761719-.980468v-59.417969c0-14.175781 17.167969-25.667969 38.339844-25.667969h102.78125c.535156 0 1.058594.050781 1.542969.148438zm0 0" fill="#ae583e"/><path d="m458.738281 12.136719v6.675781c0 26.996094-54.015625 79.957031-125.414062 79.492188h-12.328125c-6.925782 0-12.542969-3.882813-12.542969-8.660157v-54.035156c0-14.972656 17.632813-27.121094 39.390625-27.121094h105.601562c2.925782 0 5.292969 1.632813 5.292969 3.648438zm0 0" fill="#4b5055"/><path d="m453.082031 8.488281c-13.226562 28.027344-61.253906 66.015625-121.773437 65.621094h-12.328125c-4.40625 0-8.289063-1.574219-10.527344-3.953125v-34.546875c0-14.972656 17.632813-27.121094 39.390625-27.121094zm0 0" fill="#5a5f64"/><path d="m371.308594 428.269531c0 10.65625-8.636719 19.292969-19.292969 19.292969h-191.894531c-10.65625 0-19.292969-8.632812-19.292969-19.292969 0-48.578125 39.355469-88.164062 88.15625-88.164062h54.167969c48.792968 0 88.15625 39.585937 88.15625 88.164062zm0 0" fill="#d2d2d7"/><path d="m371.308594 428.269531c0 10.65625-8.636719 19.292969-19.292969 19.292969h-173.953125c-10.660156 0-19.292969-8.632812-19.292969-19.292969 0-48.578125 39.355469-88.164062 88.152344-88.164062h36.230469c48.792968 0 88.15625 39.585937 88.15625 88.164062zm0 0" fill="#ebebf0"/><path d="m277.515625 340.015625-21.449219 36.402344-21.449218-36.402344v-52.0625h42.898437zm0 0" fill="#f2d1a5"/><path d="m267.046875 410.882812h-21.558594l-11.359375 36.679688h44.652344zm0 0" fill="#6990d7"/><path d="m265.835938 411.792969h-19.535157c-3.949219 0-7.175781-3.226563-7.175781-7.175781v-17.285157c0-3.945312 3.226562-7.175781 7.175781-7.175781h19.535157c3.945312 0 7.175781 3.230469 7.175781 7.175781v17.285157c0 3.949218-3.230469 7.175781-7.175781 7.175781zm0 0" fill="#91aee2"/><path d="m219.375 253.972656c0 13.84375-11.222656 25.066406-25.066406 25.066406s-25.066406-11.222656-25.066406-25.066406 11.222656-25.066406 25.066406-25.066406 25.066406 11.222656 25.066406 25.066406zm0 0" fill="#f2d1a5"/><path d="m344.890625 253.976562c0 13.84375-11.222656 25.066407-25.066406 25.066407s-25.066407-11.222657-25.066407-25.066407 11.222657-25.066406 25.066407-25.066406 25.066406 11.222656 25.066406 25.066406zm0 0" fill="#f2d1a5"/><path d="m322.238281 155.269531v116.5625c0 30.308594-35.472656 55.785157-56.507812 63.078125-3.945313 1.367188-7.378907 2.089844-9.980469 2.089844-8.238281 0-24.859375-7.292969-39.417969-19.089844-14.566406-11.789062-27.070312-28.085937-27.070312-46.078125v-116.5625c0-11.882812 9.636719-21.511719 21.511719-21.511719h89.953124c11.882813 0 21.511719 9.628907 21.511719 21.511719zm0 0" fill="#f2d1a5"/><path d="m322.238281 155.269531v116.5625c0 26.226563-26.5625 48.835938-47.34375 59.175781-5.757812 2.863282-12.519531 2.886719-18.277343.027344-6.535157-3.25-13.648438-7.714844-20.324219-13.125-14.566407-11.789062-27.070313-28.085937-27.070313-46.078125v-116.5625c0-11.882812 9.636719-21.511719 21.515625-21.511719h69.988281c11.878907 0 21.511719 9.632813 21.511719 21.511719zm0 0" fill="#ffe4c2"/><path d="m331.957031 206.203125h-20.46875c-10.960937 0-19.847656-8.886719-19.847656-19.847656v-36.316407c0-10.964843 8.886719-19.851562 19.847656-19.851562h4.300781c10.964844 0 19.851563 8.886719 19.851563 19.851562v52.484376c-.003906 2.03125-1.652344 3.679687-3.683594 3.679687zm0 0" fill="#f29500"/><path d="m323.554688 123.835938v6.679687c0 27.03125-54.070313 80.039063-125.550782 79.578125h-12.335937c-6.933594 0-12.5625-3.886719-12.5625-8.671875v-54.089844c0-14.992187 17.660156-27.148437 39.433593-27.148437h105.726563c.792969 0 1.550781.121094 2.222656.339844 1.808594.578124 3.066407 1.84375 3.066407 3.3125zm0 0" fill="#ffa90b"/><path d="m320.488281 120.523438c-12.378906 28.164062-60.984375 67.339843-122.484375 66.945312h-12.335937c-6.933594 0-12.5625-3.886719-12.5625-8.667969v-31.46875c0-14.992187 17.660156-27.148437 39.433593-27.148437h105.726563c.792969 0 1.550781.121094 2.222656.339844zm0 0" fill="#ffb52d"/><path d="m218.652344 326.082031-16.453125 17.167969c-1.324219 1.378906-1.789063 3.371094-1.210938 5.191406l14.941407 47.054688c2.253906 4.128906 8.050781 5.441406 12.1875 2.765625l29.503906-19.109375-30.699219-52.105469c-1.757813-2.980469-5.875-3.460937-8.269531-.964844zm0 0" fill="#aec2e9"/><path d="m293.484375 326.082031 16.453125 17.167969c1.324219 1.378906 1.785156 3.371094 1.207031 5.191406l-14.9375 47.054688c-2.257812 4.128906-8.050781 5.441406-12.1875 2.765625l-29.503906-19.109375 30.699219-52.105469c1.753906-2.980469 5.875-3.460937 8.269531-.964844zm0 0" fill="#aec2e9"/><path d="m162.953125 137.242188c0 4.347656-3.523437 7.871093-7.867187 7.871093-4.347657 0-7.871094-3.523437-7.871094-7.871093 0-4.34375 3.523437-7.867188 7.871094-7.867188 4.34375 0 7.867187 3.523438 7.867187 7.867188zm0 0"/><path d="m166.339844 119.425781c1.25.785157 2.640625 1.160157 4.015625 1.160157 7.570312 0 10.4375-9.9375 4.03125-13.964844-11.464844-7.207032-29.4375-3.734375-31.449219-3.316406-4.089844.851562-6.710938 4.855468-5.859375 8.941406.851563 4.089844 4.855469 6.71875 8.945313 5.859375 4.464843-.929688 15.304687-1.832031 20.316406 1.320312zm0 0"/><path d="m87.011719 129.375c-4.34375 0-7.871094 3.519531-7.871094 7.863281 0 4.347657 3.527344 7.875 7.871094 7.875 4.3125 0 7.867187-3.484375 7.867187-7.875 0-3.175781-3.460937-7.863281-7.867187-7.863281zm0 0"/><path d="m130.253906 173.433594c0 4.171875-3.398437 7.570312-7.582031 7.570312-4.171875 0-7.570313-3.398437-7.570313-7.570312 0-4.109375-3.339843-7.5625-7.5625-7.5625-4.222656 0-7.5625 3.453125-7.5625 7.5625 0 18.71875 21.660157 29.527344 36.566407 17.945312 5.375-4.144531 8.832031-10.648437 8.832031-17.945312 0-1.734375-.585938-3.328125-1.5625-4.597656-4.367188-5.707032-13.558594-2.628907-13.558594 4.597656zm0 0"/><path d="m389.429688 249.695312c-.019532.035157-.042969.074219-.058594.105469.015625-.027343.035156-.0625.058594-.105469zm0 0"/><path d="m289.742188 334.625c.011718.011719.015624.011719 0 0zm0 0"/><path d="m289.542969 334.414062.007812.011719zm0 0"/><path d="m389.457031 249.652344c.015625-.027344.027344-.050782.039063-.0625-.011719.015625-.023438.039062-.039063.0625zm0 0"/><path d="m389.320312 249.859375.003907.003906-.007813-.011719zm0 0"/><path d="m221.21875 334.414062-.007812.011719zm0 0"/><path d="m474.839844 240.785156c-3.308594-2.558594-8.054688-1.953125-10.605469 1.351563-2.5625 3.308593-1.957031 8.054687 1.351563 10.605469 19.878906 15.394531 31.292968 38.613281 31.292968 63.714843 0 6.464844-5.253906 11.714844-11.714844 11.714844h-180.078124l-5.050782-5.261719c13.429688-11.289062 22.421875-23.972656 26.242188-36.835937 21.351562-5.417969 31.28125-29.914063 20.214844-48.554688 8.9375-1.800781 16.46875-1.535156 17.078124-1.5625l19.246094 32.644531c2.886719 4.933594 10.09375 4.972657 13.023438 0l19.238281-32.644531c1.378906.101563 11.578125-.828125 26.199219 3.921875 3.972656 1.292969 8.238281-.886718 9.527344-4.847656 1.289062-3.972656-.875-8.238281-4.847657-9.527344-8.558593-2.78125-17.472656-4.335937-26.515625-4.617187 4.324219-2.664063 8.628906-5.695313 12.703125-9.003907 14.316407-11.59375 23.851563-24.757812 27.785157-38.117187 14.164062-3.539063 24.6875-16.382813 24.6875-31.625 0-14.5-9.515626-26.816406-22.632813-31.042969-.238281-70.828125.539063-68.328125-.695313-73.867187 6.777344-13.507813 4.597657-20.644531 5.011719-25.09375 0-6.289063-5.644531-11.210938-12.855469-11.210938h-105.601562c-26.335938 0-46.949219 15.234375-46.949219 34.683594v54.035156c0 7.109375 5.390625 13.015625 13.132813 15.253907v7.632812c-104.652344.589844-105.730469-1.382812-118.6875 1.84375v-12.390625h2.148437c6.1875 0 11.230469-5.050781 11.230469-11.242187v-52.433594c0-13.105469-9.246094-24.082032-21.566406-26.753906v-.546876c0-6.179687-5.585938-11.007812-12.710938-11.007812h-102.78125c-25.738281 0-45.902344 14.597656-45.902344 33.230469v88.324219c0 3.113281 1.773438 5.945312 4.425782 7.367187-7.683594 17.210937.949218 37.613281 19.003906 43.976563 5.59375 20.199218 23.167969 37.199218 40.921875 48.097656.007813 0 .007813.011718.019531.011718-16.070312.917969-31.617187 5.835938-45.246094 14.386719-3.539062 2.214844-4.605468 6.882813-2.390624 10.421875 2.21875 3.53125 6.886718 4.609375 10.425781 2.378906 12.773437-8.003906 27.53125-12.238281 42.707031-12.238281h1.296875l19.238281 32.644531c2.925782 4.964844 10.132813 4.941407 13.023438 0l19.246094-32.644531c1.292968.054688 6.949218-.332031 15.980468 1.351563-10.628906 17.59375-2.515625 40.859375 17.167969 47.855468 3.800781 13.632813 13.410156 27.121094 27.976563 38.957032l-3.890626 4.050781h-178.828124c-6.460938 0-11.714844-5.25-11.714844-11.714844 0-18.296875 5.988281-35.546875 17.320312-49.871093 2.582032-3.277344 2.027344-8.035157-1.25-10.625-3.277344-2.59375-8.035156-2.027344-10.613281 1.25-13.460937 17.027343-20.578125 37.511718-20.578125 59.246093 0 14.800781 12.039062 26.839844 26.835938 26.839844h158.039062c-16.492188 8.375-30.546875 21.460937-40.011719 38.027344-2.128906 3.730469-.839843 8.46875 2.890625 10.605469 3.730469 2.125 8.46875.824218 10.597656-2.902344 8.398438-14.691406 21.089844-26.113282 35.96875-33.050782l13.46875 42.464844c2.480469 7.613282 13.683594 12.59375 22.886719 7.511719.179688 3.953125 1.90625 7.488281 4.578125 10.0625l-7.5625 24.425781h-32.554687v-30.164062c0-4.292969-3.476563-7.761719-7.773438-7.761719-4.292969 0-7.769531 3.46875-7.769531 7.761719v30.164062h-20.246094c-6.371094 0-11.550781-5.171875-11.550781-11.542968 0-4.464844.371094-8.953126 1.097656-13.328126.714844-4.234374-2.148437-8.238281-6.382812-8.941406-4.234375-.707031-8.234375 2.15625-8.929688 6.390625-.878906 5.210938-1.324219 10.554688-1.324219 15.878907 0 14.929687 12.148438 27.078124 27.089844 27.078124h192.074219c14.929687 0 27.070313-12.148437 27.070313-27.078124 0-37.320313-21.40625-69.722657-52.566407-85.601563h159.238281c14.796876 0 26.835938-12.039063 26.835938-26.839844 0-29.808593-13.550781-57.390625-37.160156-75.671875zm-12.855469-112.992187c10.011719 6.960937 10.011719 21.730469 0 28.691406zm-159.335937 220.292969-13.773438 43.378906c-.171875.546875-.792969.796875-1.296875.53125-4.589844-2.445313-23.171875-14.667969-23.269531-14.734375v-.011719c1.03125-1.765625 24.191406-41.0625 25.234375-42.835938-.007813-.007812-.003907 0 .023437.027344-.007812-.007812-.011718-.011718-.015625-.015625.117188.117188.171875.175781.191407.199219-.011719-.011719-.03125-.03125-.054688-.058594.582031.609375 3.210938 3.347656 12.960938 13.519532zm-47.363282 13.546874c-.011718-.019531-.019531-.039062-.03125-.058593v.019531c-.019531-.039062-.03125-.058594-.039062-.082031 0-.007813-.011719-.019531-.011719-.019531-.574219-.988282-2.851563-4.847657-10.554687-17.933594 7.519531 2.148437 12.832031 2.195312 22.078124-1.027344-8.164062 13.851562-10.566406 17.921875-11.171874 18.953125-.007813.019531-.019532.039063-.027344.050781-.011719.019532-.019532.039063-.042969.058594-.011719.027344-.023437.046875-.035156.070312-.003907.011719-.011719.023438-.015625.03125-.007813.011719-.007813.011719-.007813.011719-.011719.027344-.019531.039063-.03125.050781v.007813h-.007812c0 .011719 0 .011719-.011719.019531-.011719-.007812-.011719-.007812-.011719-.019531-.019531-.019531-.027343-.039063-.039062-.058594v-.011719c-.019531-.019531-.03125-.039062-.039063-.0625zm.101563 28.359376 9.183593 5.960937v8.6875h-18.378906v-8.6875zm70.871093-191.367188h-16.402343c-6.675781 0-12.097657-5.421875-12.097657-12.097656v-5.152344c10.921876-9.164062 22.160157-21.503906 28.027344-34.558594.675782 2.347656.472656-1.476562.472656 51.808594zm2.128907 69.605469c0-7.535157 0-21.773438 0-28.007813 9.472656 6.859375 9.554687 20.996094 0 28.007813zm5.25-43.007813h-.007813c-1.664062-.898437-3.417968-1.65625-5.242187-2.25v-8.8125c.582031-.128906 7.671875 1.089844 11.722656-5.460937 4.53125 4.039062 10.410156 8.472656 16.644531 12.296875-8.015625.453125-15.757812 1.90625-23.117187 4.226562zm55.816406 24.433594c.003906 0 .003906-.003906.003906-.003906 0 .003906-.003906.003906-.003906.007812-.003906.007813-.011719.015625-.015625.023438-.027344.046875-.0625.105468-.109375.1875 0-.003906-.003906-.007813-.007813-.011719-.007812-.015625-.011718-.023437-.019531-.039063.003907.011719.011719.023438.015625.03125-.007812-.019531-.027344-.046874-.058594-.105468.003907.011718.011719.023437.015626.03125-.019532-.03125-.035157-.0625-.050782-.085938.007813.011719.015625.023438.023438.035156-.011719-.015624-.023438-.035156-.035156-.054687-.027344-.046875-.046876-.082031-.054688-.097656-.589844-.992188-2.933594-4.96875-10.96875-18.597657 8.054688 2.378907 13.367188 2.328126 22.894531-1.058593-8.773437 14.890625-11.113281 18.867187-11.628906 19.738281zm54.445313-75.929688c-9.84375 23.359376-43.386719 43.648438-55.800782 43.792969-.179687-.03125-3.863281.339844-12.640625-3.609375-11.324219-5.097656-24.570312-14.457031-33.664062-25.082031v-38.652344c0-9.476562-4.796875-17.867187-12.097657-22.847656-.089843-2.65625.273438-4.289063-.542968-6.710937v-14.75c1.671875-.324219 64.28125 4.917968 113.851562-44.351563 1.339844-1.328125 2.621094-2.660156 3.859375-4 0 111.730469 1.316407 106.097656-2.964843 116.210937zm-127.882813-138.117187c0-10.597656 14.578125-19.558594 31.828125-19.558594h103.335938c-.347657.75 3.101562 12.929688-18.832032 34.738281-45.128906 44.839844-102.058594 39.582032-103.195312 39.953126-3.738282-.296876-10.71875.898437-13.136719-1.519532zm-129.941406-8.621094c4.417969 1.863281 7.519531 6.230469 7.519531 11.320313v48.554687h-16.550781c-6.765625 0-12.269531-5.503906-12.269531-12.269531v-1.753906c11.238281-12.875 18.386718-29.136719 21.300781-45.851563zm-138.691407 127.238281c-6.503906-6.765624-6.503906-17.398437 0-24.183593zm-6.503906-40.660156v-80.335937c0-9.386719 13.621094-17.65625 29.460938-18.089844 5.261718-1.15625.542968-.433594 93.222656-.652344h8.46875c-.835938 22.378907-11.613281 45.910157-31.089844 59.550781-.023437-.140624 2.355469-7.863281-4.75-10.960937-3.992187-1.730469-8.691406-.542969-11.179687 2.824219-5.96875 8.066406-19.648438 25.234375-36.164063 37.300781 2.5625-8.445313-8.226562-14.476563-14.828125-8.617187-9.328125 8.285156-21.03125 15.644531-33.140625 18.980468zm81.792969 136.304688-8.195313-13.914063h16.402344zm-1.21875-32.351563c-.1875-.03125-3.886719.339844-12.644531-3.621093-16.140625-7.265626-35.738282-22.746094-43.117188-39.667969-4.265625-9.75-3.1875-12.089844-3.1875-53.242188 1.976563-1.046875 3.863282-2.136719 5.65625-3.246093.03125 6.460937 7.140625 10.382812 13.015625 7.632812 16.089844-7.421875 31.476563-21.503906 43.320313-34.875 2.390625 4.085938 7.652344 5.535156 11.9375 3.53125 5.707031-2.683594 10.765625-5.757812 15.253906-9.09375 4.082031 9.988281 13.910156 17.046875 25.355469 17.046875h3.175781v18.671875c-10.246094 6.351562-16.644531 15.929688-16.644531 26.816406v45.699219c-10.976563 11.0625-31.597657 24.222656-42.121094 24.347656zm58.28125 48.320313c-6-6.625-5.988281-16.644532 0-23.257813zm0-41.878906c-.738281.3125-1.460937.65625-2.167969 1.019531-7.882812-2.402344-16.203125-3.8125-24.792968-4.085938 0-.007812.011718-.007812.011718-.007812 5.332032-3.28125 9.742188-6.542969 14.113282-10.152344 2.882812 3.558594 7.441406 6.109375 12.835937 6.984375zm-.625-22.863282c0-58.777344-.34375-55.410156 1.109375-58.617187 2.605469-5.800781 9.089844-9.730469 15.121094-11.863281 9.632812-3.402344 4.378906-2.550782 118.820312-2.550782-.144531 2.109375 1.066406 7.039063-5.304687 17.671875-35.847657 60.195313-125.230469 59.230469-129.746094 55.359375zm19.425781 85.417969c-4.492187-10.152344-3.265625-10.957031-3.265625-68.460937 1.179688-.171876 44.4375 2.429687 87.585938-25.640626 2.714843 12.421876 13.78125 21.746094 27 21.746094h2.996093v57.929688c0 28.421875-43.066406 57.421875-58.789062 57.464844-12.378906-.046876-45.300781-19.921876-55.527344-43.039063zm24.425782 105.878906c-.359376.171875-.78125-.007812-.902344-.390625-1.445313-4.546875-13.910156-43.804687-13.945313-43.917968 9.75-10.171876 12.375-12.910157 12.960938-13.519532-.027344.023438-.046875.046875-.058594.058594.023437-.023438.078125-.082031.191406-.203125-.003906.003906-.007812.011719-.011719.015625.023438-.027344.03125-.03125.023438-.023438.066406.101563 24.296875 41.246094 25.242188 42.835938v.007812c-17.964844 11.644532-22.242188 14.527344-23.5 15.136719zm21 48.046875 6.28125-20.265625h10.75l6.480468 20.265625zm118.992187-11.542968c0 6.371093-5.171875 11.542968-11.53125 11.542968h-20.253906v-30.164062c0-4.292969-3.476563-7.761719-7.773438-7.761719-4.285156 0-7.761719 3.46875-7.761719 7.761719v30.164062h-31.847656l-7.925781-24.78125c2.472656-2.53125 4.054687-5.9375 4.226563-9.707031 9.222656 5.121094 20.425781.019531 22.882812-7.511719l13.480469-42.484375c27.453125 12.824219 46.503906 40.699219 46.503906 72.941407zm0 0"/><path d="m389.429688 249.695312c.003906-.003906.003906-.007812.007812-.011718 0 .003906-.003906.007812-.007812.011718zm0 0"/><path d="m221.015625 334.625c-.011719.011719-.007813.011719 0 0zm0 0"/><path d="m389.496094 249.589844c.023437-.042969.03125-.054688 0 0zm0 0"/><path d="m389.257812 249.75c-.003906-.007812-.007812-.011719-.011718-.019531.003906.003906.007812.011719.011718.019531zm0 0"/><path d="m418.160156 135.082031v.011719c-6.292968 2.777344-6.207031 11.714844.070313 14.425781 5.289062 2.226563 10.980469-1.648437 10.980469-7.238281 0-4.347656-5.773438-9.484375-11.050782-7.199219zm0 0"/><path d="m439.816406 111.167969c-11.484375-6.550781-28.652344-3.234375-30.617187-2.820313-4.082031.84375-6.714844 4.859375-5.859375 8.941406.847656 4.09375 4.859375 6.714844 8.945312 5.855469 5.398438-1.113281 15.652344-1.636719 20.3125 1.320313 3.507813 2.207031 8.195313 1.183594 10.425782-2.378906 2.171874-3.453126 1.425781-8.4375-3.207032-10.917969zm0 0"/><path d="m361.140625 142.285156c0 4.34375-3.523437 7.867188-7.867187 7.867188-4.347657 0-7.871094-3.523438-7.871094-7.867188 0-4.347656 3.523437-7.871094 7.871094-7.871094 4.34375 0 7.867187 3.523438 7.867187 7.871094zm0 0"/><path d="m371.277344 117.289062c.851562-4.085937-1.769532-8.09375-5.859375-8.945312-2.011719-.421875-19.988281-3.886719-31.449219 3.320312-6.40625 4.027344-3.535156 13.960938 4.03125 13.960938 1.375 0 2.765625-.375 4.015625-1.160156 4.785156-3.003906 15.007813-2.402344 20.332031-1.3125 4.078125.84375 8.078125-1.777344 8.929688-5.863282zm0 0"/><path d="m396.898438 173.433594c0 4.171875-3.398438 7.570312-7.570313 7.570312-4.183594 0-7.582031-3.398437-7.582031-7.570312 0-1.734375-.585938-3.328125-1.5625-4.597656-4.417969-5.773438-13.558594-2.527344-13.558594 4.597656 0 18.945312 21.871094 29.390625 36.566406 17.945312 5.371094-4.144531 8.832032-10.648437 8.832032-17.945312 0-1.734375-.585938-3.328125-1.574219-4.597656-4.402344-5.796876-13.550781-2.484376-13.550781 4.597656zm0 0"/><path d="m289.492188 246.472656c-7.507813 0-10.78125 9.523438-4.800782 14.15625 5.171875 3.914063 12.683594.28125 12.683594-6.273437 0-4.300781-3.476562-7.882813-7.882812-7.882813zm0 0"/><path d="m280.433594 235.375c5.300781-1.082031 15.484375-1.691406 20.230468 1.292969 1.285157.804687 2.714844 1.191406 4.125 1.191406 7.777344 0 10.722657-10.207031 4.144532-14.34375-11.550782-7.265625-29.632813-3.773437-31.65625-3.351563-4.195313.875-6.882813 4.976563-6.015625 9.171876.867187 4.195312 4.972656 6.894531 9.171875 6.039062zm0 0"/><path d="m216.5 248.074219c-1.882812 1.445312-3.113281 3.722656-3.113281 6.28125 0 7.027343 8.492187 10.484375 13.4375 5.605469 1.441406-1.429688 2.339843-3.417969 2.339843-5.605469 0-6.542969-7.515624-10.179688-12.664062-6.28125zm0 0"/><path d="m230.324219 235.375c4.191406.875 8.304687-1.828125 9.183593-6.019531.875-4.203125-1.824218-8.316407-6.019531-9.195313-2.027343-.414062-20.113281-3.910156-31.65625 3.355469-4.121093 2.582031-4.839843 8.242187-1.652343 11.757813 2.523437 2.824218 6.699218 3.40625 9.917968 1.390624 4.738282-2.972656 14.921875-2.371093 20.226563-1.289062zm0 0"/><path d="m244.769531 305.945312c6.785157 3.574219 15.671875 3.503907 22.550781-.769531 11.191407-6.902343 14.285157-22.539062 7.109376-26.460937-4.976563-2.722656-11.65625.710937-11.65625 6.863281 0 4.074219-3.316407 7.390625-7.386719 7.390625-4.085938 0-7.402344-3.316406-7.402344-7.390625 0-4.292969-3.476563-7.773437-7.773437-7.773437-1.058594 0-1.996094.164062-2.832032.457031-8.769531 3.054687-5.414062 20.957031 7.390625 27.683593zm0 0"/></svg>